<svg fill="none" xmlns="http://www.w3.org/2000/svg" viewBox="0 0 24 24">
  <path d="M12.03 1.2a5.11 5.11 0 0 1 4.32 2.42 4.75 4.75 0 0 1 .02 4.85 1.6 1.6 0 0 1 1.33 1.07 1.55 1.55 0 0 1-.4 1.64 1.66 1.66 0 0 1-1.69.38c-.29-.1-.54-.26-.74-.49-.2-.23-.32-.5-.36-.8l-.2.1a2.24 2.24 0 0 1-.78 1.36 2.36 2.36 0 0 1-3 0c-.43-.35-.7-.83-.8-1.36l-.19-.1c-.04.3-.17.57-.36.8a1.65 1.65 0 0 1-1.64.53 1.58 1.58 0 0 1-1.18-2.06c.1-.28.27-.53.5-.72.24-.19.53-.3.83-.35a4.75 4.75 0 0 1 1.84-6.62 5.11 5.11 0 0 1 2.5-.65Zm0-1.2a6.39 6.39 0 0 0-5.04 2.48 5.96 5.96 0 0 0-.9 5.42 2.73 2.73 0 0 0-.53 3.82 2.94 2.94 0 0 0 3.91.69 3.58 3.58 0 0 0 2.56 1.06 3.67 3.67 0 0 0 2.58-1.06 2.95 2.95 0 0 0 3.84-.73 2.73 2.73 0 0 0-.48-3.78 5.89 5.89 0 0 0-.9-5.42A6.2 6.2 0 0 0 12.02 0Z" fill="#2D3440"/>
  <path d="M16.13 13.53c-.48 0-.97-.1-1.41-.29l-.2.15.09.09-.7.67-.29-.29-.37.13.42.4-.69.67-.7-.67.28-.27a4.54 4.54 0 0 1-1.04 0l.27.27-.69.67-.69-.67.41-.4a3.88 3.88 0 0 1-.37-.12l-.3.28-.7-.67.1-.08-.22-.16c-.44.2-.92.3-1.41.3h-.1c-.02.09-.01.18.02.27l3.6 9.8.02.04c0 .02 0 .03.02.04a.9.9 0 0 0 .04.07l.01.02.08.08.01.01.07.05.03.02a.6.6 0 0 0 .08.03h.02l.07.02h.26l.06-.02h.04a.71.71 0 0 0 .07-.03l.03-.02a.39.39 0 0 0 .07-.05l.02-.01a.77.77 0 0 0 .07-.08l.02-.02a.56.56 0 0 0 .04-.07l.03-.07 3.61-9.81a.56.56 0 0 0 .03-.28h-.1Zm-2.47 2.69-.7.67-.67-.67.69-.67.68.67Zm-2.32.9.7-.66.68.67-.69.67-.69-.67Zm1.38 1.83-.69.67-.69-.67.7-.67.68.67Zm-.69-4.32.7.67-.7.67-.69-.67.7-.67Zm-.25 1.59-.69.67-.69-.67.7-.67.68.67Zm-2.63-2.43.07-.07.68.67-.39.38-.36-.98Zm.49 1.34.5-.5.7.67-.68.67-.32-.3-.2-.54Zm.5 1.35.02-.01.68.67-.34.34-.36-1Zm.73 2.02-.25-.68.47-.45.69.66-.69.69-.22-.22Zm.61 1.65-.33-.9.63.62-.3.28Zm.54 1.47-.4-1.1.4-.41.41.39-.41 1.12Zm.54-1.48-.27-.27.6-.6-.33.87Zm.61-1.62-.2.2-.68-.68.69-.67.45.44-.26.71Zm.4-1.07-.34-.32.69-.67-.36 1Zm.64-1.76-.3.28-.69-.67.7-.67.49.5-.2.56Zm.33-.92-.38-.38.7-.67.05.06-.37.99Z" fill="#2D3440"/>
</svg>
