<svg fill="none" xmlns="http://www.w3.org/2000/svg" viewBox="0 0 12 6">
  <path fill-rule="evenodd" clip-rule="evenodd" d="M6.588 5.975h-.717s-1.583.083-2.976-1.188C1.375 3.4.032.647.032.647S-.045.467.04.379C.134.281.391.275.391.275l1.715-.01s.161.024.277.098c.095.062.149.176.149.176s.277.615.644 1.17c.716 1.085 1.05 1.322 1.293 1.206.354-.17.248-1.533.248-1.533S4.724.886 4.54.666c-.143-.17-.414-.22-.533-.235-.096-.011.062-.207.267-.295.309-.133.854-.14 1.498-.135.501.005.646.032.842.074.455.096.44.405.41 1.07-.01.2-.02.43-.02.697 0 .06-.002.124-.004.19-.01.34-.023.73.233.876.132.074.453.011 1.256-1.185.381-.566.667-1.233.667-1.233s.062-.119.16-.17c.098-.051.232-.036.232-.036l1.804-.01s.543-.056.63.158c.092.226-.202.751-.94 1.612-.695.813-1.035 1.115-1.008 1.38.02.196.24.372.668.72.889.722 1.125 1.102 1.182 1.192a.507.507 0 0 0 .01.016c.397.578-.44.623-.44.623l-1.603.02s-.345.06-.798-.214c-.237-.142-.469-.375-.69-.597-.337-.339-.649-.652-.915-.578-.447.124-.433.967-.433.967s.004.18-.098.277c-.11.104-.328.125-.328.125Z" fill="#FCFCFC"/>
</svg>
