<svg fill="none" xmlns="http://www.w3.org/2000/svg" viewBox="0 0 12 12">
  <path fill-rule="evenodd" clip-rule="evenodd" d="M8.473.036C7.833.006 7.63 0 6 0S4.166.008 3.527.036c-.64.03-1.074.13-1.457.279-.4.15-.763.387-1.063.692-.306.3-.542.662-.692 1.063-.149.383-.249.817-.279 1.457C.006 4.167 0 4.37 0 6s.008 1.834.036 2.473c.03.64.13 1.075.279 1.457.15.4.387.763.692 1.063.3.306.662.542 1.063.692.383.148.818.249 1.457.279.64.03.843.036 2.473.036s1.834-.008 2.473-.036c.64-.03 1.075-.13 1.457-.279.4-.15.763-.387 1.063-.692.306-.3.542-.662.692-1.063.148-.383.249-.818.279-1.457.03-.64.036-.843.036-2.473s-.008-1.834-.036-2.473c-.03-.64-.13-1.075-.279-1.457-.15-.4-.387-.763-.692-1.063A2.925 2.925 0 0 0 9.93.315C9.547.166 9.112.066 8.473.036ZM3.88 3.879A3 3 0 1 1 8.12 8.12 3 3 0 0 1 3.88 3.88Zm5.801-1.56A.75.75 0 1 1 8.62 3.38a.75.75 0 0 1 1.06-1.06ZM7.273 4.728a1.8 1.8 0 1 0-2.546 2.546 1.8 1.8 0 0 0 2.546-2.546Z" fill="#FCFCFC"/>
</svg>
